<svg xmlns="http://www.w3.org/2000/svg" viewBox="0 0 16 16"><title>share</title><g ><path d="M12.69,9.88A1.88,1.88,0,1,1,14.56,8,1.88,1.88,0,0,1,12.69,9.88ZM3.31,14.56a1.88,1.88,0,1,1,1.88-1.87A1.87,1.87,0,0,1,3.31,14.56Zm0-9.37A1.88,1.88,0,1,1,5.19,3.31,1.88,1.88,0,0,1,3.31,5.19Zm9.44.06a2.77,2.77,0,0,0-2.2,1.09L5.91,4A3,3,0,0,0,6,3.25a2.75,2.75,0,1,0-.49,1.57l4.61,2.36a2.86,2.86,0,0,0,0,1.64L5.51,11.18A2.75,2.75,0,1,0,6,12.75,2.84,2.84,0,0,0,5.91,12l4.64-2.37a2.75,2.75,0,1,0,2.2-4.41Z"/></g></svg>
