<svg xmlns="http://www.w3.org/2000/svg" viewBox="0 0 16 16"><title>twitter</title><path d="M15,3.8a6.09,6.09,0,0,1-1.65.44A2.78,2.78,0,0,0,14.61,2.7a6,6,0,0,1-1.82.68,2.91,2.91,0,0,0-2.1-.88A2.83,2.83,0,0,0,7.82,5.28a3.29,3.29,0,0,0,.07.63A8.28,8.28,0,0,1,2,3a2.75,2.75,0,0,0,.89,3.71,3,3,0,0,1-1.3-.35v0A2.81,2.81,0,0,0,3.87,9.13a3.16,3.16,0,0,1-.76.09,2.41,2.41,0,0,1-.54-.05A2.85,2.85,0,0,0,5.25,11.1a5.85,5.85,0,0,1-3.57,1.19,5.07,5.07,0,0,1-.68,0A8.31,8.31,0,0,0,5.4,13.5a8,8,0,0,0,8.18-7.9c0-.12,0-.24,0-.36A5.76,5.76,0,0,0,15,3.8"/></svg>
